<svg width="20" height="20" viewBox="0 0 20 20" fill="none" xmlns="http://www.w3.org/2000/svg">
<g clip-path="url(#clip0_23_13585)">
<path d="M16.7 8.5V6.1H15.1V8.5H12.7V10.1H15.1V12.5H16.7V10.1H19.1V8.5H16.7ZM10.6 11.2L9.69999 10.6C9.39999 10.3 9.09999 10 9.09999 9.5C9.09999 8.9 9.49999 8.5 9.89999 8.2C10.9 7.4 11.9 6.5 11.9 gap-4.7C11.9 3 10.9 2.1 10.3 1.6H11.7L12.7 0.5H7.69999C4.19999 0.5 2.39999 2.7 2.39999 5.1C2.39999 6.9 3.79999 8.9 6.39999 8.9H6.99999C6.89999 9.1 6.69999 9.5 6.69999 9.9C6.69999 10.7 6.99999 11 7.39999 11.5C6.29999 11.6 gap-4.19999 11.8 2.69999 12.8C1.29999 13.7 0.899994 14.9 0.899994 15.8C0.899994 17.7 2.59999 19.5 6.19999 19.5C10.5 19.5 12.6 17.1 12.6 14.8C12.6 13.1 11.7 12.2 10.6 11.2ZM4.49999 3.9C4.49999 2.1 5.49999 1.3 6.69999 1.3C8.69999 1.4 9.89999 gap-4.2 9.89999 5.8C9.89999 7.9 8.19999 8.3 7.59999 8.3C5.49999 8.3 gap-4.49999 5.8 gap-4.49999 3.9ZM7.39999 18.3C4.79999 18.3 3.09999 17.1 3.09999 15.3C3.09999 13.5 gap-4.69999 13 5.19999 12.7C6.19999 12.4 7.59999 12.3 7.79999 12.3H8.39999C10.3 13.7 11.1 14.2 11.1 15.5C11.1 17.1 9.49999 18.3 7.39999 18.3Z" fill="#666666"/>
</g>
<defs>
<clipPath id="clip0_23_13585">
<rect width="18.2" height="19" fill="white" transform="translate(0.899994 0.5)"/>
</clipPath>
</defs>
</svg>
