<svg width="20" height="20" viewBox="0 0 20 20" fill="none" xmlns="http://www.w3.org/2000/svg">
<path d="M5.50014 16.0003V1.4131L4.89471 1.00761C2.32016 2.04141 0.5 4.55595 0.5 7.50015V12.5003C0.5 16.366 3.63421 19.5002 7.50036 19.5002H12.5005C14.8617 19.5002 16.9423 18.3261 18.2093 16.5349V16.0003H5.50014Z" fill="#666666"/>
<path d="M12.5001 0.499786H7.50044C6.57805 0.499786 5.69971 0.682881 4.89349 1.00675C3.22707 2.62481 2.00024 5.26371 2.00024 7.49972C2.00024 10.8662 2.46273 12.8453 3.83292 14.7708C3.94995 14.9349 4.03243 15.1249 4.04452 15.3262C4.06568 15.6829 4.21595 16.0914 3.78499 16.632C3.55828 16.9162 3.76988 17.3359 4.13304 17.3484C4.51478 17.3618 4.8529 17.3368 5.69281 16.9667C5.96745 16.8458 6.28614 16.851 6.55085 16.9926C8.21166 17.8813 10.1601 18 12.0001 18C14.338 18 16.6699 17.4801 18.2089 16.5418C19.0194 15.3996 19.5001 14.0069 19.5001 12.4999V7.50015C19.5005 3.63399 16.3663 0.499786 12.5001 0.499786Z" fill="white"/>
<path d="M16.226 11.7269C15.1347 11.7269 14.2469 10.7617 14.2469 9.57464C14.2469 8.38754 15.1347 7.42241 16.226 7.42241C17.3172 7.42241 18.205 8.38754 18.205 9.57464C18.205 10.7617 17.3172 11.7269 16.226 11.7269ZM16.226 8.56071C15.7894 8.56071 15.4344 9.01585 15.4344 9.57464C15.4344 10.1334 15.7894 10.5886 16.226 10.5886C16.6625 10.5886 17.0175 10.1334 17.0175 9.57464C17.0175 9.01585 16.6625 8.56071 16.226 8.56071Z" fill="#666666"/>
<path d="M13.2576 11.7269C12.9295 11.7269 12.6639 11.4609 12.6639 11.1331V6.38386C12.6639 6.05611 12.9295 5.7901 13.2576 5.7901C13.5858 5.7901 13.8514 6.05611 13.8514 6.38386V11.1335C13.8514 11.4609 13.5858 11.7269 13.2576 11.7269Z" fill="#666666"/>
<path d="M11.5261 7.52173C11.3028 7.52173 11.1111 7.64653 11.0096 7.8279C10.7091 7.57398 10.3416 7.42241 9.94301 7.42241C8.9321 7.42241 8.11249 8.38582 8.11249 9.57464C8.11249 10.763 8.9321 11.7269 9.94301 11.7269C10.3416 11.7269 10.7091 11.5757 11.0096 11.3214C11.1111 11.5036 11.3028 11.6276 11.5261 11.6276C11.8543 11.6276 12.1199 11.3615 12.1199 11.0338V8.11463C12.1199 7.78774 11.8543 7.52173 11.5261 7.52173ZM10.1157 10.589C9.66491 10.589 9.29958 10.1352 9.29958 9.57507C9.29958 9.01499 9.66491 8.56114 10.1157 8.56114C10.5666 8.56114 10.9319 9.01499 10.9319 9.57507C10.9323 10.1352 10.567 10.589 10.1157 10.589Z" fill="#666666"/>
<path d="M7.51876 11.5783H4.5996C4.35562 11.5783 4.13625 11.4431 4.02527 11.2264C3.91472 11.0092 3.93502 10.7522 4.07795 10.5553L6.36189 7.37274H4.64926C4.32107 7.37274 4.0555 7.10673 4.0555 6.77897C4.0555 6.45122 4.32107 6.18521 4.64926 6.18521H7.51876C7.74115 6.18521 7.94541 6.30958 8.04689 6.50779C8.1488 6.70556 8.13066 6.94436 8.00111 7.1253L5.65801 10.3908H7.51919C7.84738 10.3908 8.11295 10.6568 8.11295 10.9845C8.11252 11.3123 7.84695 11.5783 7.51876 11.5783ZM5.04482 11.2458L5.04136 11.2514C5.04179 11.2493 5.04352 11.2475 5.04482 11.2458Z" fill="#666666"/>
</svg>
