<svg width="32" height="32" viewBox="0 0 32 32" fill="none" xmlns="http://www.w3.org/2000/svg">
<g clip-path="url(#clip0_21_1428)">
<rect width="34" height="32" fill="#00AB76"/>
<path d="M11.5464 20.7271C11.8829 21.0521 12.4264 21.0521 12.7629 20.7271L16.119 17.5021L19.4664 20.7354C19.6277 20.8912 19.8465 20.9788 20.0747 20.9788C20.3028 20.9788 20.5216 20.8912 20.6829 20.7354C20.8442 20.5796 20.9348 20.3683 20.9348 20.1479C20.9348 19.9275 20.8442 19.7162 20.6829 19.5604L16.7229 15.7354C16.6431 15.6581 16.5483 15.5969 16.4439 15.555C16.3395 15.5132 16.2277 15.4917 16.1147 15.4917C16.0017 15.4917 15.8898 15.5132 15.7854 15.555C15.6811 15.5969 15.5862 15.6581 15.5064 15.7354L11.5464 19.5521C11.4665 19.6292 11.403 19.7207 11.3597 19.8215C11.3164 19.9224 11.2941 20.0304 11.2941 20.1396C11.2941 20.2487 11.3164 20.3568 11.3597 20.4576C11.403 20.5584 11.4665 20.65 11.5464 20.7271Z" fill="white"/>
<path d="M11.5464 16.2354C11.8829 16.5604 12.4264 16.5604 12.7629 16.2354L16.119 13.0104L19.4664 16.2437C19.6277 16.3995 19.8465 16.4871 20.0747 16.4871C20.3028 16.4871 20.5216 16.3995 20.6829 16.2437C20.8442 16.0879 20.9348 15.8766 20.9348 15.6562C20.9348 15.4358 20.8442 15.2245 20.6829 15.0687L16.7229 11.2437C16.6431 11.1665 16.5483 11.1052 16.4439 11.0633C16.3395 11.0215 16.2277 11 16.1147 11C16.0017 11 15.8898 11.0215 15.7854 11.0633C15.6811 11.1052 15.5862 11.1665 15.5064 11.2437L11.5464 15.0604C11.4665 15.1375 11.403 15.229 11.3597 15.3298C11.3164 15.4307 11.2941 15.5387 11.2941 15.6479C11.2941 15.757 11.3164 15.8651 11.3597 15.9659C11.403 16.0667 11.4665 16.1583 11.5464 16.2354Z" fill="white"/>
</g>
<defs>
<clipPath id="clip0_21_1428">
<rect width="32" height="32" rx="16" fill="white"/>
</clipPath>
</defs>
</svg>
