<svg width="20" height="21" viewBox="0 0 20 21" fill="none" xmlns="http://www.w3.org/2000/svg">
<path d="M14.6875 2.75H18.4375C18.6861 2.75 18.9246 2.84877 19.1004 3.02459C19.2762 3.2004 19.375 3.43886 19.375 3.6875V18.6875C19.375 18.9361 19.2762 19.1746 19.1004 19.3504C18.9246 19.5262 18.6861 19.625 18.4375 19.625H1.5625C1.31386 19.625 1.0754 19.5262 0.899587 19.3504C0.723772 19.1746 0.625 18.9361 0.625 18.6875V3.6875C0.625 3.43886 0.723772 3.2004 0.899587 3.02459C1.0754 2.84877 1.31386 2.75 1.5625 2.75H5.3125V0.875H7.1875V2.75H12.8125V0.875H14.6875V2.75ZM2.5 7.75V17.75H17.5V7.75H2.5ZM4.375 9.625H6.25V11.5H4.375V9.625ZM9.0625 9.625H10.9375V11.5H9.0625V9.625ZM13.75 9.625H15.625V11.5H13.75V9.625Z" fill="#73777A"/>
<path d="M6.25 14H4.375V15.875H6.25V14Z" fill="#73777A"/>
<path d="M10.9375 14H9.0625V15.875H10.9375V14Z" fill="#73777A"/>
</svg>
