<svg width="33" height="33" viewBox="0 0 33 33" fill="none" xmlns="http://www.w3.org/2000/svg">
<g clip-path="url(#clip0_23_13765)">
<rect x="0.244141" y="0.645874" width="34" height="32" fill="#00AB76"/>
<path d="M11.7906 21.3729C12.1271 21.6979 12.6706 21.6979 13.0071 21.3729L16.3632 18.1479L19.7106 21.3813C19.8719 21.5371 20.0907 21.6246 20.3189 21.6246C20.547 21.6246 20.7658 21.5371 20.9271 21.3813C21.0884 21.2255 21.179 21.0141 21.179 20.7938C21.179 20.5734 21.0884 20.3621 20.9271 20.2063L16.9671 16.3813C16.8873 16.304 16.7925 16.2427 16.6881 16.2009C16.5837 16.1591 16.4719 16.1376 16.3589 16.1376C16.2459 16.1376 16.134 16.1591 16.0296 16.2009C15.9253 16.2427 15.8304 16.304 15.7506 16.3813L11.7906 20.1979C11.7107 20.275 11.6472 20.3666 11.6039 20.4674C11.5606 20.5682 11.5383 20.6763 11.5383 20.7854C11.5383 20.8946 11.5606 21.0027 11.6039 21.1035C11.6472 21.2043 11.7107 21.2958 11.7906 21.3729Z" fill="white"/>
<path d="M11.7906 16.8812C12.1271 17.2062 12.6706 17.2062 13.0071 16.8812L16.3632 13.6562L19.7106 16.8896C19.8719 17.0454 20.0907 17.1329 20.3189 17.1329C20.547 17.1329 20.7658 17.0454 20.9271 16.8896C21.0884 16.7338 21.179 16.5224 21.179 16.3021C21.179 16.0817 21.0884 15.8704 20.9271 15.7146L16.9671 11.8896C16.8873 11.8123 16.7925 11.751 16.6881 11.7092C16.5837 11.6674 16.4719 11.6459 16.3589 11.6459C16.2459 11.6459 16.134 11.6674 16.0296 11.7092C15.9253 11.751 15.8304 11.8123 15.7506 11.8896L11.7906 15.7062C11.7107 15.7833 11.6472 15.8749 11.6039 15.9757C11.5606 16.0765 11.5383 16.1846 11.5383 16.2937C11.5383 16.4029 11.5606 16.511 11.6039 16.6118C11.6472 16.7126 11.7107 16.8041 11.7906 16.8812Z" fill="white"/>
</g>
<defs>
<clipPath id="clip0_23_13765">
<rect x="0.244141" y="0.645874" width="32" height="32" rx="16" fill="white"/>
</clipPath>
</defs>
</svg>
