<svg width="24" height="25" viewBox="0 0 24 25" fill="none" xmlns="http://www.w3.org/2000/svg">
<g clip-path="url(#clip0_21_1475)">
<path fill-rule="evenodd" clip-rule="evenodd" d="M6.14809 0.5H14.1697L20.9682 7.58846V21.3756C20.9682 23.1027 19.5714 24.5 17.8507 24.5H6.14809C4.42148 24.5 3.0246 23.1027 3.0246 21.3756V3.62443C3.02457 1.8973 4.42145 0.5 6.14809 0.5V0.5Z" fill="#46CD96"/>
<path opacity="0.4" fill-rule="evenodd" clip-rule="evenodd" d="M14.1637 0.5V7.53449H20.9682L14.1637 0.5Z" fill="#E5FCF2"/>
<path d="M5.99814 18.6474V14.0233H7.96487C8.45181 14.0233 8.83758 14.1561 9.12847 14.4281C9.41937 14.6938 9.56483 15.0544 9.56483 15.5035C9.56483 15.9526 9.41937 16.3132 9.12847 16.5789C8.83758 16.8509 8.45181 16.9837 7.96487 16.9837H7.1807V18.6474H5.99814ZM7.1807 15.9779H7.83207C8.00913 15.9779 8.14826 15.94 8.24313 15.8514C8.33798 15.7692 8.3886 15.6553 8.3886 15.5035C8.3886 15.3517 8.33801 15.2378 8.24313 15.1556C8.14829 15.067 8.00916 15.0291 7.83207 15.0291H7.1807V15.9779ZM10.0517 18.6474V14.0233H11.6896C12.0121 14.0233 12.3157 14.0675 12.6003 14.1624C12.8848 14.2573 13.1441 14.3902 13.3718 14.5736C13.5994 14.7507 13.7828 14.9911 13.9156 15.2947C14.0421 15.5984 14.1117 15.9463 14.1117 16.3385C14.1117 16.7244 14.0421 17.0723 13.9156 17.3759C13.7828 17.6795 13.5994 17.9199 13.3718 18.097C13.1441 18.2805 12.8848 18.4133 12.6003 18.5082C12.3157 18.6031 12.0121 18.6474 11.6896 18.6474H10.0517ZM11.209 17.6416H11.5505C11.7339 17.6416 11.9046 17.6226 12.0627 17.5783C12.2145 17.5341 12.36 17.4645 12.4991 17.3696C12.6319 17.2747 12.7394 17.1418 12.8153 16.9647C12.8912 16.7876 12.9291 16.5789 12.9291 16.3385C12.9291 16.0918 12.8912 15.883 12.8153 15.7059C12.7394 15.5288 12.6319 15.396 12.4991 15.3011C12.36 15.2062 12.2145 15.1366 12.0627 15.0923C11.9046 15.0481 11.7339 15.0291 11.5505 15.0291H11.209V17.6416ZM14.7061 18.6474V14.0233H17.9946V15.0291H15.8887V15.7692H17.5708V16.7686H15.8887V18.6474H14.7061Z" fill="#E5FCF2"/>
</g>
<defs>
<clipPath id="clip0_21_1475">
<rect width="23.9928" height="24" fill="white" transform="translate(0 0.5)"/>
</clipPath>
</defs>
</svg>
