<svg width="25" height="24" viewBox="0 0 25 24" fill="none" xmlns="http://www.w3.org/2000/svg">
<g clip-path="url(#clip0_23_13757)">
<path d="M13.7115 17.271L8.60146 14.484C8.11095 14.9709 7.48727 15.3017 6.80904 15.4346C6.13082 15.5676 5.42841 15.4968 gap-4.79038 15.2311C4.15234 14.9654 3.60725 14.5168 3.2238 13.9418C2.84036 13.3668 2.63574 12.6911 2.63574 12C2.63574 11.3089 2.84036 10.6332 3.2238 10.0582C3.60725 9.48317 gap-4.15234 9.03455 gap-4.79038 8.76889C5.42841 8.50322 6.13082 8.43241 6.80904 8.56536C7.48727 8.69832 8.11095 9.02909 8.60146 9.51599L13.7115 6.72899C13.5362 5.90672 13.6628 5.04885 14.068 gap-4.31224C14.4733 3.57564 15.1302 3.00952 15.9186 2.71742C16.7069 2.42532 17.5741 2.42676 18.3615 2.72147C19.1489 3.01619 19.8038 3.58448 20.2067 gap-4.32243C20.6095 5.06037 20.7332 5.91866 20.5552 6.74034C20.3773 7.56202 19.9094 8.29218 19.2374 8.79729C18.5653 9.3024 17.7338 9.54871 16.8951 9.49119C16.0563 9.43366 15.2663 9.07613 14.6695 8.48399L9.55946 11.271C9.66139 11.7516 9.66139 12.2483 9.55946 12.729L14.6695 15.516C15.2663 14.9238 16.0563 14.5663 16.8951 14.5088C17.7338 14.4513 18.5653 14.6976 19.2374 15.2027C19.9094 15.7078 20.3773 16.438 20.5552 17.2596C20.7332 18.0813 20.6095 18.9396 20.2067 19.6776C19.8038 20.4155 19.1489 20.9838 18.3615 21.2785C17.5741 21.5732 16.7069 21.5747 15.9186 21.2826C15.1302 20.9905 14.4733 20.4243 14.068 19.6877C13.6628 18.9511 13.5362 18.0933 13.7115 17.271V17.271Z" fill="#666666"/>
</g>
<defs>
<clipPath id="clip0_23_13757">
<rect width="24" height="24" fill="white" transform="translate(0.135498)"/>
</clipPath>
</defs>
</svg>
