<svg width="18" height="17" viewBox="0 0 18 17" fill="none" xmlns="http://www.w3.org/2000/svg">
<path d="M17.7119 11.6503C17.5126 11.4466 17.2633 11.3447 16.9809 11.3447H11.963L10.4843 12.8561C10.0689 13.2637 9.57044 13.4675 9.00552 13.4675C8.4406 13.4675 7.95876 13.2637 7.52676 12.8561L6.06461 11.3447H1.04679C0.764334 11.3447 0.515105 11.4466 0.315721 11.6503C0.0997223 11.8541 3.05176e-05 12.1089 3.05176e-05 12.3976V15.9471C3.05176e-05 16.2358 0.0997223 16.4905 0.299106 16.6943C0.498489 16.8981 0.747719 17 1.03018 17H16.9642C17.2467 17 17.4959 16.8981 17.6953 16.6943C17.8947 16.4905 17.9944 16.2358 17.9944 15.9471V12.3976C18.0276 12.1089 17.9113 11.8541 17.7119 11.6503ZM13.6578 15.3696C13.5249 15.5055 13.3587 15.5734 13.176 15.5734C12.9932 15.5734 12.827 15.5055 12.6941 15.3696C12.5612 15.2338 12.4947 15.0639 12.4947 14.8771C12.4947 14.6903 12.5612 14.5205 12.6941 14.3846C12.827 14.2488 12.9932 14.1808 13.176 14.1808C13.3587 14.1808 13.5249 14.2488 13.6578 14.3846C13.7907 14.5205 13.8572 14.6903 13.8572 14.8771C13.8572 15.0639 13.7907 15.2338 13.6578 15.3696ZM16.4326 15.3696C16.2996 15.5055 16.1335 15.5734 15.9507 15.5734C15.7679 15.5734 15.6018 15.5055 15.4689 15.3696C15.3359 15.2338 15.2695 15.0639 15.2695 14.8771C15.2695 14.6903 15.3359 14.5205 15.4689 14.3846C15.6018 14.2488 15.7679 14.1808 15.9507 14.1808C16.1335 14.1808 16.2996 14.2488 16.4326 14.3846C16.5655 14.5205 16.6319 14.6903 16.6319 14.8771C16.6319 15.0639 16.5655 15.2338 16.4326 15.3696Z" fill="#73777A"/>
<path d="M8.52368 11.8372C8.6566 11.973 8.82275 12.041 9.00552 12.041C9.2049 12.041 9.37106 11.973 9.48737 11.8372L14.339 6.87812C14.555 6.65734 14.6215 6.4026 14.4886 6.0969C14.3723 5.80819 14.1563 5.67233 13.8572 5.67233H11.0824V0.713287C11.0824 0.526473 11.016 0.356643 10.8831 0.220779C10.7501 0.0679321 10.584 0 10.4012 0H7.62645C7.44368 0 7.27753 0.0679321 7.14461 0.203796C7.01169 0.33966 6.94522 0.50949 6.94522 0.696304V5.65534H4.15385C3.85478 5.65534 3.63878 5.79121 3.52247 6.07992C3.40617 6.38561 3.45601 6.64036 3.67201 6.86114L8.52368 11.8372Z" fill="#73777A"/>
</svg>
