<svg width="52" height="52" fill="none" xmlns="http://www.w3.org/2000/svg"><rect x=".5" y=".5" width="51" height="51" rx="5.5" fill="#006339" stroke="#006339"/><path d="M26 17c-5.56 0-10.398 3.425-13 8.5 2.602 5.081 7.44 8.5 13 8.5s10.398-3.425 13-8.5c-2.602-5.075-7.44-8.5-13-8.5Zm0 13.818c-2.99 0-5.415-2.379-5.415-5.312 0-2.933 2.425-5.311 5.415-5.311s5.415 2.378 5.415 5.311S28.99 30.818 26 30.818Z" fill="#fff"/><path d="M26 28.688c1.795 0 3.25-1.427 3.25-3.188 0-1.76-1.455-3.188-3.25-3.188s-3.25 1.427-3.25 3.188c0 1.76 1.455 3.188 3.25 3.188Z" fill="#fff"/></svg>