<svg width="24" height="24" fill="none" xmlns="http://www.w3.org/2000/svg"><path d="M20.473 12.527a.527.527 0 0 0-.528.528v.527H4.055v-.527a.527.527 0 1 0-1.055 0v2.11a.527.527 0 1 0 1.055 0v-.528h.643L4.1 17.02a1.566 1.566 0 0 0-.045.384v2.014c0 .872.71 1.582 1.582 1.582h12.726c.872 0 1.582-.71 1.582-1.582v-2.014c0-.127-.014-.257-.045-.384l-.598-2.383h.643v.527a.527.527 0 1 0 1.055 0v-2.11a.527.527 0 0 0-.527-.527ZM7.78 18.856a.527.527 0 1 1-.001-1.054.527.527 0 0 1 .001 1.053Zm0-2.11a.527.527 0 1 1-.001-1.053.527.527 0 0 1 .001 1.053Zm2.11 2.11a.527.527 0 1 1-.002-1.054.527.527 0 0 1 .002 1.053Zm0-2.11a.527.527 0 1 1-.002-1.053.527.527 0 0 1 .002 1.053ZM12 18.856a.527.527 0 1 1-.001-1.054.527.527 0 0 1 .001 1.053Zm0-2.11a.527.527 0 1 1-.001-1.053.527.527 0 0 1 .001 1.053Zm2.11 2.11a.527.527 0 1 1-.002-1.054.527.527 0 0 1 .001 1.053Zm0-2.11a.527.527 0 1 1-.002-1.053.527.527 0 0 1 .001 1.053Zm2.109 2.11a.527.527 0 1 1-.002-1.054.527.527 0 0 1 .002 1.053Zm0-2.11a.527.527 0 1 1-.002-1.053.527.527 0 0 1 .002 1.053Z" fill="#8F9294"/><path d="M14.637 3.31V6.2h2.854l-2.854-2.89Z" fill="#00884F"/><path d="M17.8 7.254h-3.69a.527.527 0 0 1-.528-.527V3H6.727a.527.527 0 0 0-.528.527v9h11.602V7.254ZM8.837 6.199H12a.527.527 0 1 1 0 1.055H8.836a.527.527 0 1 1 0-1.055Zm6.328 5.274H8.836a.527.527 0 1 1 0-1.055h6.328a.527.527 0 1 1 0 1.055Zm0-2.11H8.836a.527.527 0 1 1 0-1.054h6.328a.527.527 0 1 1 0 1.054Z" fill="#00884F"/></svg>