<svg width="24" height="24" fill="none" xmlns="http://www.w3.org/2000/svg"><path d="M13.618 14.206c1.094-.462 1.942-1.078 2.574-1.88.632-.786.94-1.649.94-2.589s-.308-1.788-.94-2.589c-.617-.77-1.48-1.402-2.574-1.85-1.094-.462-2.265-.693-3.544-.693-1.28 0-2.466.231-3.545.694-1.094.462-1.942 1.079-2.574 1.88C3.308 7.965 3 8.813 3 9.753c0 .8.231 1.54.709 2.25.478.708 1.125 1.294 1.957 1.772-.062.154-.139.308-.2.447a3.28 3.28 0 0 1-.247.385c-.092.123-.17.216-.231.293-.046.077-.139.17-.262.293-.123.123-.2.215-.231.246l-.046.046-.047.047-.046.046c-.03.03-.03.062-.03.062l-.016.061c-.015.016-.015.046-.015.062v.062c0 .03 0 .046.015.061a.312.312 0 0 0 .123.216.363.363 0 0 0 .2.077h.031c.34-.046.617-.108.863-.154a8.381 8.381 0 0 0 2.79-1.28 9.955 9.955 0 0 0 1.772.155c1.264-.016 2.45-.231 3.53-.694Zm-6.41-3.482a.944.944 0 0 1-.94-.94c0-.525.415-.94.94-.94.523 0 .94.415.94.94 0 .523-.417.94-.94.94Zm5.67-1.865c.509 0 .94.416.94.94s-.416.94-.94.94a.947.947 0 0 1-.94-.956c0-.524.416-.924.94-.924Zm-3.775.924c0-.508.416-.94.94-.94.508 0 .94.416.94.94s-.416.94-.94.94a.934.934 0 0 1-.94-.94Z" fill="#8F9294"/><path d="M20.291 14.576a3.892 3.892 0 0 0 .71-2.25c0-.817-.248-1.587-.756-2.311-.509-.71-1.187-1.31-2.05-1.788.154.508.232 1.017.232 1.526 0 .893-.232 1.741-.679 2.558-.447.801-1.094 1.51-1.926 2.127a8.845 8.845 0 0 1-2.65 1.294c-.987.308-2.02.447-3.098.447-.2 0-.493-.015-.879-.046 1.341.878 2.928 1.325 4.747 1.325.57 0 1.171-.046 1.772-.154a8.382 8.382 0 0 0 2.79 1.28c.246.06.523.107.862.153a.288.288 0 0 0 .216-.077.337.337 0 0 0 .124-.216c0-.046 0-.061.015-.061s.015-.031 0-.062c-.015-.046-.015-.062-.015-.062l-.031-.046c0-.015-.016-.03-.031-.061s-.03-.047-.046-.047l-.046-.046c-.016-.03-.031-.046-.047-.046-.03-.046-.108-.123-.23-.247-.124-.123-.201-.23-.263-.292a2.295 2.295 0 0 0-.231-.293c-.092-.124-.185-.247-.247-.386a3.002 3.002 0 0 1-.2-.447c.832-.477 1.48-1.078 1.957-1.772Z" fill="#00884F"/></svg>