<svg width="33" height="32" fill="none" xmlns="http://www.w3.org/2000/svg"><g clip-path="url('#clip0_23_13853')"><path d="M16.244.666C7.771.666.91 7.526.91 16c0 8.473 6.872 15.334 15.346 15.334 8.473 0 15.334-6.872 15.334-15.334S24.716.666 16.244.666Z" fill="#fff" stroke="#8F9294" stroke-miterlimit="10"/><path d="m23.584 17.239-9.151 6.3c-.257.175-.55.268-.854.268a1.44 1.44 0 0 1-.689-.175 1.494 1.494 0 0 1-.795-1.32v-12.6c0-.55.304-1.063.795-1.32a1.495 1.495 0 0 1 1.543.093l9.15 6.3c.41.28.644.736.644 1.227 0 .49-.234.946-.643 1.227Z" fill="#44494D"/></g><defs><clipPath id="clip0_23_13853"><path fill="#fff" transform="translate(.244)" d="M0 0h32v32H0z"/></clipPath></defs></svg>