<svg width="20" height="20" fill="none" xmlns="http://www.w3.org/2000/svg"><path d="M9.846 0C4.438 0 0 4.438 0 9.846c0 1.883.57 3.7 1.576 5.275l-1.535 3.78a.577.577 0 0 0 .75.75l3.78-1.535c1.576 1.007 3.393 1.576 5.275 1.576 5.408 0 9.846-4.438 9.846-9.846S15.254 0 9.846 0Z" fill="#666"/><path d="M16.091 7.212a.574.574 0 0 0-.678-.214l-4.268 1.6L9.1 6.555a.64.64 0 0 0-.425-.17.578.578 0 0 0-.414.194l-4.615 5.193a.576.576 0 0 0 .634.923l4.267-1.6 2.045 2.045a.578.578 0 0 0 .408.169h.017a.577.577 0 0 0 .414-.194l4.615-5.192a.576.576 0 0 0 .045-.71Z" fill="#fff"/></svg>