<svg xmlns="http://www.w3.org/2000/svg" width="16" height="17" fill="none"><path d="M5.601 16.887a5.537 5.537 0 0 1-3.937-1.67A5.332 5.332 0 0 1 1.47 7.67l6.54-6.604A3.653 3.653 0 0 1 10.677.001a3.981 3.981 0 0 1 2.835 1.2 3.875 3.875 0 0 1 .133 5.448l-6.576 6.603a2.259 2.259 0 0 1-1.609.667 2.42 2.42 0 0 1-1.733-.73 2.382 2.382 0 0 1-.071-3.35l6.07-6.096a.889.889 0 0 1 1.218 1.253l-6.07 6.096a.604.604 0 0 0 .07.845c.126.126.294.199.472.204A.497.497 0 0 0 5.77 12l6.568-6.603a2.097 2.097 0 0 0-.133-2.942 2.115 2.115 0 0 0-2.907-.133L2.731 8.888a3.555 3.555 0 0 0 .195 5.04 3.752 3.752 0 0 0 2.666 1.146 3.26 3.26 0 0 0 2.32-.942l6.568-6.603a.888.888 0 0 1 1.451.283.888.888 0 0 1-.19.97l-6.567 6.603a5.022 5.022 0 0 1-3.573 1.502Z" fill="#73777A"/></svg>