<svg width="20" height="20" fill="none" xmlns="http://www.w3.org/2000/svg"><path d="M5.5 16V1.413l-.605-.405A6.997 6.997 0 0 0 .5 7.5v5a7 7 0 0 0 7 7h5a6.979 6.979 0 0 0 5.71-2.965V16H5.5Z" fill="#666"/><path d="M12.5.5h-5c-.922 0-1.8.183-2.607.507C3.227 2.625 2 5.264 2 7.5c0 3.366.463 5.345 1.833 7.27.117.165.2.355.212.556.02.357.171.765-.26 1.306-.227.284-.015.704.348.716.382.014.72-.011 1.56-.381a.984.984 0 0 1 .858.026C8.21 17.88 10.16 18 12 18c2.337 0 4.669-.52 6.208-1.458A6.96 6.96 0 0 0 19.5 12.5v-5a7 7 0 0 0-7-7Z" fill="#fff"/><path d="M16.226 11.727c-1.091 0-1.98-.965-1.98-2.152 0-1.187.889-2.153 1.98-2.153s1.979.966 1.979 2.153-.888 2.152-1.979 2.152Zm0-3.166c-.437 0-.792.455-.792 1.014 0 .558.355 1.014.792 1.014.437 0 .791-.456.791-1.014 0-.56-.354-1.014-.791-1.014ZM13.258 11.727a.594.594 0 0 1-.594-.594v-4.75a.594.594 0 1 1 1.187 0v4.75a.594.594 0 0 1-.593.594ZM11.526 7.522a.592.592 0 0 0-.516.306 1.645 1.645 0 0 0-1.067-.406c-1.01 0-1.83.964-1.83 2.153 0 1.188.82 2.152 1.83 2.152.399 0 .766-.151 1.067-.406a.59.59 0 0 0 .516.307.594.594 0 0 0 .594-.594v-2.92a.594.594 0 0 0-.594-.592Zm-1.41 3.067c-.451 0-.816-.454-.816-1.014s.365-1.014.816-1.014c.45 0 .816.454.816 1.014s-.365 1.014-.816 1.014Z" fill="#666"/><path d="M7.519 11.578h-2.92a.642.642 0 0 1-.521-1.023l2.284-3.182H4.649a.594.594 0 1 1 0-1.188h2.87a.593.593 0 0 1 .482.94l-2.343 3.266h1.861a.594.594 0 1 1 0 1.187Zm-2.474-.332-.004.005c0-.002.003-.003.004-.005Z" fill="#666"/></svg>