<svg width="32" height="32" fill="none" xmlns="http://www.w3.org/2000/svg"><g clip-path="url('#clip0_21_1428')"><path fill="#00AB76" d="M0 0h34v32H0z"/><path d="M11.546 20.727a.88.88 0 0 0 1.217 0l3.356-3.225 3.347 3.233c.162.156.38.244.609.244a.876.876 0 0 0 .608-.244.817.817 0 0 0 .252-.587c0-.22-.09-.432-.252-.588l-3.96-3.825a.862.862 0 0 0-.608-.243.886.886 0 0 0-.609.243l-3.96 3.817a.83.83 0 0 0-.252.588.805.805 0 0 0 .252.587Z" fill="#fff"/><path d="M11.546 16.235a.88.88 0 0 0 1.217 0l3.356-3.225 3.347 3.234c.162.155.38.243.609.243a.876.876 0 0 0 .608-.243.817.817 0 0 0 .252-.588c0-.22-.09-.431-.252-.587l-3.96-3.825a.864.864 0 0 0-.608-.244.886.886 0 0 0-.609.244l-3.96 3.816a.83.83 0 0 0-.252.588.805.805 0 0 0 .252.587Z" fill="#fff"/></g><defs><clipPath id="clip0_21_1428"><rect width="32" height="32" rx="16" fill="#fff"/></clipPath></defs></svg>