<svg width="24" height="24" fill="none" xmlns="http://www.w3.org/2000/svg"><path d="M16.891 6.14v-.837a2.623 2.623 0 0 0-2.62-2.62H9.694a2.623 2.623 0 0 0-2.62 2.62v.838h9.817Z" fill="#8F9294"/><path d="M8.122 13.826V19.519c0 .58.47 1.048 1.048 1.048h5.625c.58 0 1.048-.469 1.048-1.048v-5.693h-7.72Zm4.95 4.47h-2.178a.524.524 0 1 1 0-1.047h2.178a.524.524 0 1 1 0 1.048Zm0-2.235h-2.178a.524.524 0 1 1 0-1.048h2.178a.524.524 0 1 1 0 1.048Z" fill="#00884F"/><path d="M17.38 7.189H6.62A2.623 2.623 0 0 0 4 9.809V14a2.623 2.623 0 0 0 2.62 2.62h.454v-2.794H6.76a.524.524 0 0 1 0-1.048H17.206a.524.524 0 1 1 0 1.048h-.315v2.794h.49A2.623 2.623 0 0 0 20 14V9.81a2.623 2.623 0 0 0-2.62-2.62Zm-8.943 3.283H6.76a.524.524 0 0 1 0-1.048h1.677a.524.524 0 0 1 0 1.048Z" fill="#8F9294"/></svg>