<svg width="24" height="25" fill="none" xmlns="http://www.w3.org/2000/svg"><g clip-path="url('#clip0_21_1475')"><path fill-rule="evenodd" clip-rule="evenodd" d="M6.148.5h8.022l6.798 7.088v13.788a3.12 3.12 0 0 1-3.117 3.124H6.148a3.122 3.122 0 0 1-3.123-3.124V3.624A3.122 3.122 0 0 1 6.148.5Z" fill="#46CD96"/><path opacity=".4" fill-rule="evenodd" clip-rule="evenodd" d="M14.164.5v7.034h6.804L14.164.5Z" fill="#E5FCF2"/><path d="M5.998 18.647v-4.624h1.967c.487 0 .873.133 1.163.405.291.266.437.626.437 1.075 0 .45-.146.81-.437 1.076-.29.272-.676.405-1.163.405H7.18v1.663H5.998Zm1.183-2.67h.651c.177 0 .316-.037.411-.126a.435.435 0 0 0 .146-.348.435.435 0 0 0-.146-.347c-.095-.089-.234-.127-.41-.127H7.18v.949Zm2.87 2.67v-4.624h1.639c.322 0 .626.045.91.14.285.094.544.227.772.41.227.178.41.418.544.722.126.303.196.651.196 1.043 0 .386-.07.734-.196 1.038a1.817 1.817 0 0 1-.544.721 2.448 2.448 0 0 1-.772.411 2.86 2.86 0 0 1-.91.14h-1.638Zm1.158-1.005h.341c.184 0 .355-.02.513-.064.151-.044.297-.113.436-.208a.938.938 0 0 0 .316-.405c.076-.177.114-.386.114-.627 0-.246-.038-.455-.114-.632a.938.938 0 0 0-.316-.405 1.535 1.535 0 0 0-.436-.209 1.898 1.898 0 0 0-.513-.063h-.341v2.613Zm3.497 1.005v-4.624h3.289v1.006h-2.106v.74h1.682v1h-1.682v1.878h-1.183Z" fill="#E5FCF2"/></g><defs><clipPath id="clip0_21_1475"><path fill="#fff" transform="translate(0 .5)" d="M0 0h23.993v24H0z"/></clipPath></defs></svg>