<svg width="18" height="17" fill="none" xmlns="http://www.w3.org/2000/svg"><path d="M17.712 11.65a.992.992 0 0 0-.731-.305h-5.018l-1.479 1.511a2.049 2.049 0 0 1-1.478.611c-.565 0-1.047-.203-1.48-.61l-1.461-1.512H1.047a.993.993 0 0 0-.731.305.989.989 0 0 0-.316.748v3.55c0 .288.1.543.3.746.198.204.448.306.73.306h15.934a.992.992 0 0 0 .731-.306c.2-.203.3-.458.3-.747v-3.55c.033-.288-.084-.543-.283-.747Zm-4.054 3.72a.658.658 0 0 1-.482.203.658.658 0 0 1-.482-.203.688.688 0 0 1-.2-.493c0-.187.067-.357.2-.492a.659.659 0 0 1 .482-.204c.183 0 .349.068.482.204.133.136.2.305.2.492a.688.688 0 0 1-.2.493Zm2.775 0a.658.658 0 0 1-.482.203.658.658 0 0 1-.482-.203.687.687 0 0 1-.2-.493c0-.187.067-.357.2-.492a.658.658 0 0 1 .482-.204c.183 0 .349.068.482.204.133.136.199.305.199.492a.688.688 0 0 1-.2.493Z" fill="#73777A"/><path d="M8.524 11.837c.133.136.299.204.482.204.199 0 .365-.068.481-.204l4.852-4.959c.216-.22.282-.475.15-.781-.117-.289-.333-.425-.632-.425h-2.775V.713a.688.688 0 0 0-.199-.492.616.616 0 0 0-.482-.221H7.626a.658.658 0 0 0-.481.204.688.688 0 0 0-.2.492v4.96H4.154c-.3 0-.515.135-.632.424-.116.306-.066.56.15.781l4.852 4.976Z" fill="#73777A"/></svg>