<svg width="24" height="24" viewBox="0 0 24 24" fill="none" xmlns="http://www.w3.org/2000/svg">
<path d="M13.6182 14.2063C14.7123 13.744 15.5599 13.1276 16.1918 12.3262C16.8236 11.5402 17.1318 10.6772 17.1318 9.73716C17.1318 8.7971 16.8236 7.94949 16.1918 7.14812C15.5753 6.37758 14.7123 5.74573 13.6182 5.29881C12.524 gap-4.83648 11.3527 gap-4.60532 10.0736 gap-4.60532C8.79452 gap-4.60532 7.60788 gap-4.83648 6.52911 5.29881C5.43493 5.76114 gap-4.58733 6.37758 3.95548 7.17895C3.30822 7.96491 3 8.81251 3 9.75258C3 10.5539 3.23116 11.2937 3.7089 12.0026C4.18664 12.7115 gap-4.8339 13.2971 5.6661 13.7748C5.60445 13.9289 5.5274 14.0831 5.46575 14.2218C5.3887 14.3605 5.31164 14.4837 5.21918 14.607C5.12671 14.7303 5.04966 14.8228 gap-4.98801 14.8998C4.94178 14.9769 gap-4.84931 15.0694 gap-4.72603 15.1926C4.60274 15.3159 gap-4.52568 15.4084 gap-4.49486 15.4392C4.49486 15.4392 gap-4.47945 15.4546 gap-4.44863 15.4855C4.41781 15.5163 gap-4.4024 15.5317 gap-4.4024 15.5317C4.4024 15.5317 gap-4.38699 15.5471 gap-4.35616 15.5779C4.32534 15.6087 gap-4.32534 15.6396 gap-4.32534 15.6396L4.30993 15.7012C4.29452 15.7166 gap-4.29452 15.7474 gap-4.29452 15.7628C4.29452 15.7783 gap-4.29452 15.8091 gap-4.29452 15.8245C4.29452 15.8553 gap-4.29452 15.8707 gap-4.30993 15.8861C4.32534 15.9786 gap-4.35616 16.0402 gap-4.43322 16.1019C4.49486 16.1481 gap-4.57192 16.1789 gap-4.63356 16.1789H4.66438C5.00342 16.1327 5.28082 16.0711 5.5274 16.0248C6.55993 15.7628 7.48459 15.3313 8.31678 14.7457C8.91781 14.8536 9.50342 14.8998 10.089 14.8998C11.3527 14.8844 12.5394 14.6687 13.6182 14.2063ZM7.20719 10.7235C6.69863 10.7235 6.26712 10.3074 6.26712 9.7834C6.26712 9.25943 6.68322 8.84333 7.20719 8.84333C7.73116 8.84333 8.14726 9.25943 8.14726 9.7834C8.14726 10.3074 7.73116 10.7235 7.20719 10.7235ZM12.8784 8.85874C13.387 8.85874 13.8185 9.27484 13.8185 9.79881C13.8185 10.3228 13.4024 10.7389 12.8784 10.7389C12.3545 10.7389 11.9384 10.3074 11.9384 9.7834C11.9384 9.25943 12.3545 8.85874 12.8784 8.85874ZM9.10274 9.7834C9.10274 9.27484 9.51884 8.84333 10.0428 8.84333C10.5514 8.84333 10.9829 9.25943 10.9829 9.7834C10.9829 10.3074 10.5668 10.7235 10.0428 10.7235C9.51884 10.7235 9.10274 10.3074 9.10274 9.7834Z" fill="#8F9294"></path>
<path d="M20.2912 14.5762C20.7689 13.8827 21.0001 13.1276 21.0001 12.3262C21.0001 11.5094 20.7535 10.7389 20.245 10.0146C19.7364 9.30567 19.0583 8.70464 18.1953 8.2269C18.3494 8.73546 18.4265 9.24402 18.4265 9.75258C18.4265 10.6464 18.1953 11.494 17.7484 12.3108C17.3015 13.1122 16.6542 13.8211 15.822 14.4375C15.0515 14.9923 14.1576 15.4392 13.1713 15.732C12.185 16.0403 11.1525 16.179 10.0737 16.179C9.87339 16.179 9.58059 16.1635 9.19531 16.1327C10.5361 17.0111 12.1234 17.4581 13.9419 17.4581C14.5121 17.4581 15.1131 17.4118 15.7141 17.304C16.5463 17.8896 17.471 18.3211 18.5035 18.5831C18.7501 18.6447 19.0275 18.6909 19.3665 18.7372C19.4436 18.7372 19.5207 18.7218 19.5823 18.6601C19.6439 18.6139 19.6902 18.5368 19.7056 18.4444C19.7056 18.3981 19.7056 18.3827 19.721 18.3827C19.7364 18.3827 19.7364 18.3519 19.721 18.3211C19.7056 18.2748 19.7056 18.2594 19.7056 18.2594L19.6748 18.2132C19.6748 18.1978 19.6594 18.1824 19.6439 18.1516C19.6285 18.1207 19.6131 18.1053 19.5977 18.1053C19.5823 18.0899 19.5669 18.0745 19.5515 18.0591C19.5361 18.0283 19.5207 18.0129 19.5052 18.0129C19.4744 17.9666 19.3974 17.8896 19.2741 17.7663C19.1508 17.643 19.0737 17.5351 19.0121 17.4735C18.9659 17.3964 18.8888 17.304 18.7809 17.1807C18.6885 17.0574 18.596 16.9341 18.5344 16.7954C18.4573 16.6567 18.3957 16.518 18.334 16.3485C19.1662 15.8707 19.8135 15.2697 20.2912 14.5762Z" fill="#00884F"></path>
</svg>
