<svg width="24" height="24" viewBox="0 0 24 24" fill="none" xmlns="http://www.w3.org/2000/svg">
<path d="M20.4727 12.5273C20.1809 12.5273 19.9453 12.7629 19.9453 13.0547V13.582H4.05469V13.0547C4.05469 12.7629 3.81914 12.5273 3.52734 12.5273C3.23555 12.5273 3 12.7629 3 13.0547V15.1641C3 15.4559 3.23555 15.6914 3.52734 15.6914C3.81914 15.6914 4.05469 15.4559 4.05469 15.1641V14.6367H4.69805L4.10039 17.0203C4.06875 17.1469 4.05469 17.2734 4.05469 17.4035V19.418C4.05469 20.2898 4.76484 21 5.63672 21H18.3633C19.2352 21 19.9453 20.2898 19.9453 19.418V17.4035C19.9453 17.277 19.9312 17.1469 19.8996 17.0203L19.302 14.6367H19.9453V15.1641C19.9453 15.4559 20.1809 15.6914 20.4727 15.6914C20.7645 15.6914 21 15.4559 21 15.1641V13.0547C21 12.7629 20.7645 12.5273 20.4727 12.5273ZM7.78125 18.8555C7.48945 18.8555 7.25391 18.6199 7.25391 18.3281C7.25391 18.0363 7.48945 17.8008 7.78125 17.8008C8.07305 17.8008 8.30859 18.0363 8.30859 18.3281C8.30859 18.6199 8.07305 18.8555 7.78125 18.8555ZM7.78125 16.7461C7.48945 16.7461 7.25391 16.5105 7.25391 16.2188C7.25391 15.927 7.48945 15.6914 7.78125 15.6914C8.07305 15.6914 8.30859 15.927 8.30859 16.2188C8.30859 16.5105 8.07305 16.7461 7.78125 16.7461ZM9.89062 18.8555C9.59883 18.8555 9.36328 18.6199 9.36328 18.3281C9.36328 18.0363 9.59883 17.8008 9.89062 17.8008C10.1824 17.8008 10.418 18.0363 10.418 18.3281C10.418 18.6199 10.1824 18.8555 9.89062 18.8555ZM9.89062 16.7461C9.59883 16.7461 9.36328 16.5105 9.36328 16.2188C9.36328 15.927 9.59883 15.6914 9.89062 15.6914C10.1824 15.6914 10.418 15.927 10.418 16.2188C10.418 16.5105 10.1824 16.7461 9.89062 16.7461ZM12 18.8555C11.7082 18.8555 11.4727 18.6199 11.4727 18.3281C11.4727 18.0363 11.7082 17.8008 12 17.8008C12.2918 17.8008 12.5273 18.0363 12.5273 18.3281C12.5273 18.6199 12.2918 18.8555 12 18.8555ZM12 16.7461C11.7082 16.7461 11.4727 16.5105 11.4727 16.2188C11.4727 15.927 11.7082 15.6914 12 15.6914C12.2918 15.6914 12.5273 15.927 12.5273 16.2188C12.5273 16.5105 12.2918 16.7461 12 16.7461ZM14.1094 18.8555C13.8176 18.8555 13.582 18.6199 13.582 18.3281C13.582 18.0363 13.8176 17.8008 14.1094 17.8008C14.4012 17.8008 14.6367 18.0363 14.6367 18.3281C14.6367 18.6199 14.4012 18.8555 14.1094 18.8555ZM14.1094 16.7461C13.8176 16.7461 13.582 16.5105 13.582 16.2188C13.582 15.927 13.8176 15.6914 14.1094 15.6914C14.4012 15.6914 14.6367 15.927 14.6367 16.2188C14.6367 16.5105 14.4012 16.7461 14.1094 16.7461ZM16.2188 18.8555C15.927 18.8555 15.6914 18.6199 15.6914 18.3281C15.6914 18.0363 15.927 17.8008 16.2188 17.8008C16.5105 17.8008 16.7461 18.0363 16.7461 18.3281C16.7461 18.6199 16.5105 18.8555 16.2188 18.8555ZM16.2188 16.7461C15.927 16.7461 15.6914 16.5105 15.6914 16.2188C15.6914 15.927 15.927 15.6914 16.2188 15.6914C16.5105 15.6914 16.7461 15.927 16.7461 16.2188C16.7461 16.5105 16.5105 16.7461 16.2188 16.7461Z" fill="#8F9294"></path>
<path d="M14.6367 3.30936V6.1992H17.4914L14.6367 3.30936Z" fill="#00884F"></path>
<path d="M17.8008 7.25391H14.1094C13.8176 7.25391 13.582 7.01836 13.582 6.72656V3H6.72656C6.43477 3 6.19922 3.23555 6.19922 3.52734V12.5273H17.8008V7.25391ZM8.83594 6.19922H12C12.2918 6.19922 12.5273 6.43477 12.5273 6.72656C12.5273 7.01836 12.2918 7.25391 12 7.25391H8.83594C8.54414 7.25391 8.30859 7.01836 8.30859 6.72656C8.30859 6.43477 8.54414 6.19922 8.83594 6.19922ZM15.1641 11.4727H8.83594C8.54414 11.4727 8.30859 11.2371 8.30859 10.9453C8.30859 10.6535 8.54414 10.418 8.83594 10.418H15.1641C15.4559 10.418 15.6914 10.6535 15.6914 10.9453C15.6914 11.2371 15.4559 11.4727 15.1641 11.4727ZM15.1641 9.36328H8.83594C8.54414 9.36328 8.30859 9.12773 8.30859 8.83594C8.30859 8.54414 8.54414 8.30859 8.83594 8.30859H15.1641C15.4559 8.30859 15.6914 8.54414 15.6914 8.83594C15.6914 9.12773 15.4559 9.36328 15.1641 9.36328Z" fill="#00884F"></path>
</svg>
