<svg width="34" height="32" viewBox="0 0 34 32" fill="none" xmlns="http://www.w3.org/2000/svg">
<path d="M32.2867 31.1625C33.3654 30.0457 33.3654 28.2416 32.2867 27.1248L21.5821 15.9851L32.3143 4.87402C32.8315 4.33858 33.1221 3.61237 33.1221 2.85514C33.1221 2.09791 32.8315 1.37169 32.3143 0.836248C31.7971 0.300805 31.0957 1.19981e-06 30.3642 1.23178e-06C29.6328 1.26375e-06 28.9314 0.300805 28.4142 0.836248L15.718 13.9805C15.4616 14.2454 15.2582 14.5601 15.1194 14.9065C14.9806 15.253 14.9091 15.6243 14.9091 15.9994C14.9091 16.3744 14.9806 16.7458 15.1194 17.0922C15.2582 17.4387 15.4616 17.7534 15.718 18.0183L28.3865 31.1625C28.6424 31.428 28.9464 31.6386 29.281 31.7823C29.6156 31.926 29.9743 32 30.3366 32C30.6989 32 31.0576 31.926 31.3922 31.7823C31.7268 31.6386 32.0308 31.428 32.2867 31.1625Z" fill="#F0F0F0"></path>
<path d="M17.3775 31.1625C18.4563 30.0457 18.4563 28.2416 17.3775 27.1248L6.67293 15.9851L17.4052 4.87402C17.9224 4.33858 18.2129 3.61237 18.2129 2.85514C18.2129 2.09791 17.9224 1.37169 17.4052 0.836248C16.888 0.300805 16.1865 1.19981e-06 15.4551 1.23178e-06C14.7237 1.26375e-06 14.0223 0.300805 13.5051 0.836248L0.808914 13.9805C0.552491 14.2454 0.349055 14.5601 0.210251 14.9065C0.0714468 15.253 -7.15803e-07 15.6243 -6.99409e-07 15.9994C-6.83015e-07 16.3744 0.0714469 16.7458 0.210251 17.0922C0.349055 17.4387 0.552491 17.7534 0.808914 18.0183L13.4774 31.1625C13.7333 31.428 14.0373 31.6386 14.3719 31.7823C14.7065 31.926 15.0652 32 15.4275 32C15.7897 32 16.1484 31.926 16.4831 31.7823C16.8177 31.6386 17.1216 31.428 17.3775 31.1625Z" fill="#8F9294"></path>
</svg>
