<svg width="24" height="24" viewBox="0 0 24 24" fill="none" xmlns="http://www.w3.org/2000/svg">
<path d="M20.4685 11.6225L12.3733 3.5273C12.0443 3.20248 11.5929 3 11.0994 3H4.80127C3.80572 3 3 3.80572 3 4.80127V11.0994C3 11.5971 3.20248 12.0485 3.53152 12.3733L11.6309 20.4727C11.9557 20.7975 12.4029 21 12.9006 21C13.3984 21 13.8498 20.7975 14.1746 20.4727L20.4727 14.1746C20.7975 13.8456 21 13.3942 21 12.9006C21 12.3986 20.7975 11.9515 20.4685 11.6225ZM6.15116 7.50105C5.4045 7.50105 4.80127 6.89782 4.80127 6.15116C4.80127 5.4045 5.4045 4.80127 6.15116 4.80127C6.89782 4.80127 7.50105 5.4045 7.50105 6.15116C7.50105 6.89782 6.89782 7.50105 6.15116 7.50105Z" fill="#8F9294"></path>
</svg>
