<svg width="33" height="32" viewBox="0 0 33 32" fill="none" xmlns="http://www.w3.org/2000/svg">
<g clip-path="url('#clip0_23_13853')">
<path d="M16.244 0.666168C7.77064 0.666168 0.910156 7.52665 0.910156 16C0.910156 24.4733 7.78233 31.3338 16.2557 31.3338C24.729 31.3338 31.5895 24.4616 31.5895 16C31.5895 7.53834 24.7173 0.666168 16.244 0.666168Z" fill="white" stroke="#8F9294" stroke-miterlimit="10"></path>
<path d="M23.5839 17.2389L14.4327 23.5384C14.1756 23.7137 13.8834 23.8072 13.5795 23.8072C13.3458 23.8072 13.1003 23.7487 12.89 23.6319C12.3991 23.3747 12.0952 22.8605 12.0952 22.3112V9.71221C12.0952 9.1629 12.3991 8.64866 12.89 8.39153C13.3808 8.13441 13.9769 8.16947 14.4327 8.48503L23.5839 14.7845C23.9929 15.065 24.2267 15.5208 24.2267 16.0117C24.2267 16.5026 23.9929 16.9584 23.5839 17.2389Z" fill="#44494D"></path>
</g>
<defs>
<clipPath id="clip0_23_13853">
<rect width="32" height="32" fill="white" transform="translate(0.244141)"></rect>
</clipPath>
</defs>
</svg>
