<svg width="52" height="52" viewBox="0 0 52 52" fill="none" xmlns="http://www.w3.org/2000/svg">
<rect x="0.5" y="0.5" width="51" height="51" rx="5.5" fill="#006339" stroke="#006339"></rect>
<path d="M26 17C20.4395 17 15.6025 20.4249 13 25.5C15.6025 30.5813 20.4395 34 26 34C31.5605 34 36.3975 30.5751 39 25.5C36.3975 20.4249 31.5605 17 26 17ZM26 30.8179C23.0103 30.8179 20.5854 28.4392 20.5854 25.5062C20.5854 22.5733 23.0103 20.1945 26 20.1945C28.9897 20.1945 31.4146 22.5733 31.4146 25.5062C31.4146 28.4392 28.9897 30.8179 26 30.8179Z" fill="white"></path>
<path d="M26 28.6883C27.7949 28.6883 29.25 27.2608 29.25 25.5C29.25 23.7392 27.7949 22.3117 26 22.3117C24.2051 22.3117 22.75 23.7392 22.75 25.5C22.75 27.2608 24.2051 28.6883 26 28.6883Z" fill="white"></path>
</svg>
