<svg width="8" height="5" viewBox="0 0 8 5" fill="none" xmlns="http://www.w3.org/2000/svg">
<path d="M3.09211 4.76977L0.25159 1.19001C-0.147198 0.688727 -0.099548 0 0.594501 0H6.59448C7.28853 0 7.33604 0.688727 6.93787 1.19001L4.09612 4.76977C4.03963 4.84087 3.96454 4.89892 3.8772 4.939C3.78987 4.97908 3.69287 5 3.59442 5C3.49597 5 3.39897 4.97908 3.31164 4.939C3.2243 4.89892 3.1486 4.84087 3.09211 4.76977Z" fill="white"></path>
<path d="M3.09211 4.76977L0.25159 1.19001C-0.147198 0.688727 -0.099548 0 0.594501 0H6.59448C7.28853 0 7.33604 0.688727 6.93787 1.19001L4.09612 4.76977C4.03963 4.84087 3.96454 4.89892 3.8772 4.939C3.78987 4.97908 3.69287 5 3.59442 5C3.49597 5 3.39897 4.97908 3.31164 4.939C3.2243 4.89892 3.1486 4.84087 3.09211 4.76977Z" fill="#44494D"></path>
</svg>
