<svg xmlns="http://www.w3.org/2000/svg" width="16" height="17" viewBox="0 0 16 17" fill="none">
<path d="M5.60129 16.887C4.86704 16.8834 4.14082 16.7339 3.46491 16.447C2.78899 16.1602 2.17688 15.7418 1.6642 15.2161C1.15537 14.7339 0.74663 14.156 0.461371 13.5156C0.176113 12.8752 0.0199347 12.1848 0.00177424 11.484C-0.0163862 10.7832 0.103828 10.0856 0.355536 9.43133C0.607245 8.77701 0.985508 8.17875 1.46868 7.67078L8.00976 1.06749C8.35907 0.718816 8.77542 0.444552 9.23367 0.261253C9.69192 0.0779543 10.1826 -0.0105764 10.676 0.00100605C11.2045 0.00280587 11.7274 0.109822 12.2141 0.315813C12.7009 0.521804 13.1418 0.822647 13.511 1.2008C14.246 1.90844 14.6722 2.87741 14.6972 3.89737C14.7221 4.91734 14.3438 5.90599 13.6443 6.64874L7.06771 13.252C6.85706 13.4641 6.60639 13.6322 6.33026 13.7467C6.05412 13.8611 5.758 13.9195 5.4591 13.9186C5.1362 13.919 4.81649 13.8547 4.51883 13.7296C4.22118 13.6044 3.95162 13.4209 3.72606 13.1898C3.27524 12.7533 3.01488 12.1566 3.00156 11.5292C2.98825 10.9018 3.22306 10.2945 3.65497 9.83929L9.72502 3.74258C9.89778 3.62785 10.1052 3.57714 10.3114 3.59924C10.5176 3.62134 10.7096 3.71485 10.8541 3.86359C10.9986 4.01232 11.0866 4.20692 11.1027 4.41367C11.1189 4.62042 11.0622 4.82631 10.9426 4.99569L4.87253 11.0924C4.77131 11.2144 4.72205 11.3712 4.73534 11.5291C4.74864 11.687 4.82344 11.8334 4.94363 11.9367C5.06869 12.0626 5.23727 12.1358 5.41466 12.1411C5.48037 12.1421 5.54561 12.13 5.60663 12.1056C5.66764 12.0812 5.72322 12.0449 5.77015 11.9989L12.3379 5.39562C12.7066 4.98608 12.8992 4.44791 12.8743 3.89744C12.8493 3.34697 12.6088 2.82844 12.2046 2.45391C11.8292 2.06415 11.3187 1.8331 10.7781 1.8083C10.2375 1.7835 9.70795 1.96685 9.29843 2.3206L2.73068 8.88835C2.41131 9.23138 2.16292 9.63417 1.99981 10.0736C1.8367 10.5129 1.76208 10.9802 1.78025 11.4486C1.79843 11.9169 1.90903 12.377 2.10569 12.8025C2.30236 13.2279 2.58121 13.6102 2.9262 13.9275C3.27217 14.2861 3.68613 14.5722 4.14391 14.7691C4.6017 14.9659 5.09412 15.0695 5.59241 15.0739C6.02204 15.0774 6.44812 14.996 6.84619 14.8343C7.24426 14.6727 7.60647 14.4339 7.912 14.1319L14.4798 7.52859C14.562 7.44572 14.6598 7.37988 14.7676 7.33481C14.8753 7.28974 14.9908 7.26633 15.1076 7.26592C15.2244 7.2655 15.3401 7.28809 15.4481 7.3324C15.5562 7.37671 15.6544 7.44186 15.7373 7.52414C15.8202 7.60642 15.886 7.70422 15.9311 7.81195C15.9762 7.91968 15.9996 8.03523 16 8.152C16.0004 8.26878 15.9778 8.38449 15.9335 8.49253C15.8892 8.60058 15.824 8.69884 15.7418 8.7817L9.17401 15.385C8.70769 15.8596 8.15172 16.2367 7.53839 16.4946C6.92507 16.7524 6.26661 16.8858 5.60129 16.887V16.887Z" fill="#73777A"></path>
</svg>