<svg width="20" height="20" viewBox="0 0 20 20" fill="none" xmlns="http://www.w3.org/2000/svg">
<path d="M9.84611 0C4.43802 0 0 4.43809 0 9.84619C0 11.7285 0.569117 13.5455 1.57647 15.1213L0.0412694 18.9013C-0.0443848 19.1153 0.00576924 19.3599 0.169154 19.5233C0.330001 19.6841 0.573617 19.7378 0.791157 19.6511L4.57098 18.1158C6.14683 19.1232 7.9638 19.6923 9.84611 19.6923C15.2542 19.6923 19.6923 15.2543 19.6923 9.84623C19.6923 4.43813 15.2542 0 9.84611 0Z" fill="#666666"></path>
<path d="M16.091 7.2123C15.9411 6.99257 15.6617 6.90411 15.4126 6.99822L11.1454 8.59884L9.10026 6.55368C8.98814 6.44157 8.83037 6.39257 8.67545 6.38464C8.51656 6.38972 8.36672 6.45957 8.26133 6.57845L3.64593 11.7708C3.46958 11.9691 3.45101 12.2615 3.60143 12.4801C3.75074 12.6987 4.02905 12.786 4.27978 12.6942L8.54699 11.0935L10.5921 13.1387C10.7003 13.2469 10.8474 13.3077 11 13.3077H11.0169C11.1758 13.3027 11.3256 13.2328 11.431 13.1139L16.0464 7.92161C16.2228 7.7233 16.2414 7.43088 16.091 7.2123Z" fill="white"></path>
</svg>
