<svg width="24" height="24" viewBox="0 0 24 24" fill="none" xmlns="http://www.w3.org/2000/svg">
<path d="M16.8912 6.14086V5.30252C16.8912 3.85796 15.716 2.68271 14.2714 2.68271H9.69427C8.24971 2.68271 7.07446 3.85796 7.07446 5.30252V6.14086H16.8912Z" fill="#8F9294"></path>
<path d="M8.12231 13.8256V18.0872V18.9954V19.5193C8.12231 20.0981 8.59147 20.5673 9.17024 20.5673H14.7953C15.3741 20.5673 15.8432 20.0981 15.8432 19.5193V18.9954V18.0872V13.8256H8.12231ZM13.0716 18.2968H10.8939C10.6045 18.2968 10.3699 18.0622 10.3699 17.7728C10.3699 17.4834 10.6045 17.2488 10.8939 17.2488H13.0716C13.361 17.2488 13.5956 17.4834 13.5956 17.7728C13.5956 18.0622 13.361 18.2968 13.0716 18.2968ZM13.0716 16.0612H10.8939C10.6045 16.0612 10.3699 15.8266 10.3699 15.5372C10.3699 15.2479 10.6045 15.0133 10.8939 15.0133H13.0716C13.361 15.0133 13.5956 15.2479 13.5956 15.5372C13.5956 15.8266 13.361 16.0612 13.0716 16.0612Z" fill="#00884F"></path>
<path d="M17.3802 7.18878H6.6203C5.17574 7.18878 4.00049 8.36403 4.00049 9.80859V14.0003C4.00049 15.4449 5.17574 16.6201 6.6203 16.6201H7.0744V13.8256H6.76002C6.47065 13.8256 6.23606 13.591 6.23606 13.3017C6.23606 13.0123 6.47065 12.7777 6.76002 12.7777H7.59836H16.3672H17.2055C17.4949 12.7777 17.7295 13.0123 17.7295 13.3017C17.7295 13.591 17.4949 13.8256 17.2055 13.8256H16.8912V16.6201H17.3802C18.8248 16.6201 20 15.4449 20 14.0003V9.80859C20 8.36403 18.8248 7.18878 17.3802 7.18878ZM8.4367 10.4723H6.76002C6.47065 10.4723 6.23606 10.2377 6.23606 9.94831C6.23606 9.65895 6.47065 9.42435 6.76002 9.42435H8.4367C8.72607 9.42435 8.96066 9.65895 8.96066 9.94831C8.96066 10.2377 8.72607 10.4723 8.4367 10.4723Z" fill="#8F9294"></path>
</svg>
