<svg width="25" height="24" viewBox="0 0 25 24" fill="none" xmlns="http://www.w3.org/2000/svg">
<path d="M19.3364 18.0122L15.8573 14.5332C16.8054 13.3736 17.2716 11.8941 17.1593 10.4005C17.0471 8.9069 16.3651 7.51358 15.2544 6.50874C14.1437 5.50389 12.6893 4.96439 11.192 5.00183C9.69463 5.03926 8.26897 5.65078 7.20987 6.70987C6.15078 7.76897 5.53926 9.19463 5.50183 10.692C5.46439 12.1893 6.00389 13.6437 7.00874 14.7544C8.01358 15.8651 9.4069 16.5471 10.9005 16.6593C12.3941 16.7716 13.8736 16.3054 15.0332 15.3573L18.5122 18.8364C18.6222 18.9426 18.7694 19.0013 18.9222 19C19.075 18.9987 19.2212 18.9374 19.3293 18.8293C19.4374 18.7212 19.4987 18.575 19.5 18.4222C19.5013 18.2694 19.4426 18.1222 19.3364 18.0122ZM11.3472 15.51C10.425 15.51 9.52347 15.2366 8.75667 14.7242C7.98987 14.2118 7.39222 13.4836 7.0393 12.6316C6.68638 11.7796 6.59404 10.842 6.77396 9.93753C6.95388 9.03302 7.39797 8.20219 8.05008 7.55008C8.70219 6.89797 9.53302 6.45388 10.4375 6.27396C11.342 6.09404 12.2796 6.18638 13.1316 6.5393C13.9836 6.89222 14.7118 7.48987 15.2242 8.25667C15.7366 9.02347 16.01 9.92498 16.01 10.8472C16.0086 12.0834 15.5169 13.2686 14.6428 14.1428C13.7686 15.0169 12.5834 15.5086 11.3472 15.51Z" fill="white"></path>
</svg>
