<svg width="21" height="21" viewBox="0 0 21 21" fill="none" xmlns="http://www.w3.org/2000/svg">
<path d="M20.0109 9.5104L10.7609 0.677063C10.5109 0.427063 10.1775 0.427063 9.92754 0.677063L0.677541 9.59373C0.427541 9.7604 0.344208 10.0104 0.344208 10.2604C0.344208 10.8437 0.844208 11.3437 1.42754 11.3437H2.84421V19.2604C2.84421 19.9271 3.42754 20.5104 4.09421 20.5104H7.67754C8.01087 20.5104 8.34421 20.2604 8.34421 19.8437V14.4271C8.34421 14.3437 8.42754 14.1771 8.59421 14.1771H12.3442C12.4275 14.1771 12.5942 14.2604 12.5942 14.4271V19.8437C12.5942 20.1771 12.8442 20.5104 13.2609 20.5104H16.8442C17.5109 20.5104 18.0942 19.9271 18.0942 19.2604V11.3437H19.5942C20.1775 11.3437 20.6775 10.8437 20.6775 10.2604C20.3442 10.0104 20.2609 9.7604 20.0109 9.5104Z" fill="white"></path>
</svg>
