<svg width="16" height="16" viewBox="0 0 16 16" fill="none" xmlns="http://www.w3.org/2000/svg">
<path d="M15.8285 14.53L12.1539 10.8549C13.0673 9.75643 13.6175 8.34581 13.6175 6.80882C13.6175 3.3139 10.7747 0.470581 7.2804 0.470581C3.78603 0.470581 0.943176 3.3139 0.943176 6.80882C0.943176 10.3035 3.78603 13.1466 7.2804 13.1466C8.81712 13.1466 10.2276 12.5963 11.326 11.6828L15.0007 15.3579C15.1149 15.4723 15.2648 15.5294 15.4146 15.5294C15.5644 15.5294 15.7142 15.4723 15.8286 15.3579C16.0572 15.1292 16.0572 14.7586 15.8285 14.53ZM2.11398 6.80882C2.11398 3.95957 4.43161 1.64154 7.2804 1.64154C10.1291 1.64154 12.4467 3.95957 12.4467 6.80882C12.4467 9.65783 10.1291 11.9756 7.2804 11.9756C4.43161 11.9756 2.11398 9.65783 2.11398 6.80882Z" fill="white"></path>
</svg>
